<?xml version="1.0" standalone="no"?>
<!DOCTYPE svg PUBLIC "-//W3C//DTD SVG 20010904//EN"
 "http://www.w3.org/TR/2001/REC-SVG-20010904/DTD/svg10.dtd">
<svg version="1.0" xmlns="http://www.w3.org/2000/svg"
 width="259.000000pt" height="194.000000pt" viewBox="0 0 259.000000 194.000000"
 preserveAspectRatio="xMidYMid meet">

<g transform="translate(0.000000,194.000000) scale(0.100000,-0.100000)"
fill="#000000" stroke="none">
<path d="M768 985 l2 -545 545 0 c538 0 545 0 545 20 0 20 -7 20 -530 20
l-530 0 0 525 c0 493 -1 525 -17 525 -17 0 -18 -32 -15 -545z"/>
<path d="M952 1477 c-9 -10 22 -46 146 -169 86 -85 165 -158 175 -162 23 -7
76 15 101 43 11 11 26 21 35 21 16 0 281 -258 281 -273 0 -4 -25 -7 -55 -7
-43 0 -55 -3 -55 -15 0 -13 14 -15 88 -13 l87 3 5 88 c4 78 3 87 -12 87 -15 0
-18 -9 -18 -55 0 -30 -3 -55 -7 -55 -4 0 -71 64 -150 141 -137 136 -144 141
-175 135 -18 -3 -46 -20 -63 -36 -17 -17 -37 -30 -45 -30 -7 0 -84 70 -170
155 -125 125 -159 153 -168 142z"/>
<path d="M1020 799 c-43 -17 -60 -48 -60 -112 0 -51 4 -62 29 -88 24 -23 38
-29 74 -29 67 0 131 59 79 72 -12 3 -24 -2 -31 -13 -7 -13 -23 -19 -47 -19
-31 0 -37 4 -50 36 -17 40 -12 78 13 107 22 24 67 22 84 -4 13 -18 16 -19 34
-5 20 15 20 15 -1 36 -24 25 -87 35 -124 19z"/>
<path d="M1264 801 c-81 -35 -87 -184 -9 -219 57 -26 131 -6 153 43 37 81 -5
172 -83 180 -22 3 -50 1 -61 -4z m90 -53 c21 -30 20 -96 -1 -120 -20 -22 -66
-24 -87 -2 -22 21 -21 102 1 126 23 25 68 23 87 -4z"/>
<path d="M1452 644 c-23 -16 -29 -34 -11 -34 6 0 17 7 26 15 8 8 19 13 24 10
18 -12 9 -42 -21 -70 -16 -16 -30 -32 -30 -37 0 -4 20 -8 45 -8 25 0 45 5 45
10 0 6 -12 10 -27 10 l-27 0 27 28 c32 33 35 67 8 82 -26 13 -33 13 -59 -6z"/>
</g>
</svg>
