<?xml version="1.0" standalone="no"?>
<!DOCTYPE svg PUBLIC "-//W3C//DTD SVG 20010904//EN"
 "http://www.w3.org/TR/2001/REC-SVG-20010904/DTD/svg10.dtd">
<svg version="1.0" xmlns="http://www.w3.org/2000/svg"
 width="225.000000pt" height="225.000000pt" viewBox="0 0 225.000000 225.000000"
 preserveAspectRatio="xMidYMid meet">

<g transform="translate(0.000000,225.000000) scale(0.100000,-0.100000)"
fill="#000000" stroke="none">
<path d="M1075 1861 c-151 -39 -227 -196 -161 -336 40 -88 116 -135 215 -135
196 1 307 226 187 382 -52 69 -162 109 -241 89z"/>
<path d="M1910 1580 c0 -20 5 -30 15 -30 8 0 15 -8 15 -18 0 -13 -13 -21 -44
-30 -98 -26 -175 -121 -184 -227 -14 -173 142 -310 314 -275 185 39 264 263
147 417 -26 34 -32 48 -23 58 9 11 6 17 -15 31 -23 15 -27 15 -38 1 -10 -14
-18 -14 -54 -4 -30 8 -43 16 -43 29 0 11 7 18 20 18 16 0 20 7 20 30 l0 30
-65 0 -65 0 0 -30z m148 -149 c95 -49 136 -154 96 -249 -54 -130 -208 -169
-311 -79 -111 98 -91 260 42 330 42 23 127 21 173 -2z"/>
<path d="M1976 1412 c-3 -3 -6 -38 -6 -79 l0 -73 80 0 c67 0 80 3 80 16 0 29
-32 84 -61 105 -32 23 -84 40 -93 31z"/>
<path d="M174 1536 c-89 -39 -154 -139 -154 -236 1 -141 111 -250 255 -250
205 1 319 224 202 397 -46 67 -117 103 -206 103 -36 -1 -80 -7 -97 -14z m116
-76 c0 -13 7 -20 19 -20 36 0 48 -10 43 -35 -4 -22 -9 -24 -50 -22 -37 2 -47
-2 -50 -15 -2 -12 12 -25 48 -43 82 -42 92 -106 23 -150 -18 -11 -32 -28 -33
-37 0 -25 -40 -24 -40 1 0 14 -10 21 -35 25 -37 7 -38 9 -29 43 5 19 9 20 35
11 39 -13 79 -3 79 21 0 13 -16 27 -47 42 -81 40 -96 111 -33 147 17 9 30 25
30 35 0 10 8 17 20 17 13 0 20 -7 20 -20z"/>
<path d="M920 1341 c-108 -19 -144 -52 -290 -270 l-115 -170 -205 -1 c-186 0
-208 -2 -237 -20 -18 -11 -35 -31 -39 -45 -11 -43 3 -98 31 -122 26 -23 31
-23 280 -23 175 0 262 4 280 12 15 7 62 64 113 137 l87 124 3 -291 2 -292 294
0 293 0 9 292 9 292 87 -125 c51 -73 98 -130 113 -137 36 -17 504 -17 540 0
71 32 71 154 0 186 -17 8 -93 12 -230 12 l-204 0 -107 158 c-145 214 -157 227
-222 259 -55 27 -60 28 -252 30 -107 1 -215 -2 -240 -6z"/>
</g>
</svg>
