<?xml version="1.0" standalone="no"?>
<!DOCTYPE svg PUBLIC "-//W3C//DTD SVG 20010904//EN"
 "http://www.w3.org/TR/2001/REC-SVG-20010904/DTD/svg10.dtd">
<svg version="1.0" xmlns="http://www.w3.org/2000/svg"
 width="234.000000pt" height="215.000000pt" viewBox="0 0 234.000000 215.000000"
 preserveAspectRatio="xMidYMid meet">

<g transform="translate(0.000000,215.000000) scale(0.100000,-0.100000)"
fill="#000000" stroke="none">
<path d="M1084 2141 c-236 -37 -421 -208 -480 -441 -22 -87 -15 -241 16 -327
61 -175 210 -314 395 -369 81 -24 229 -24 310 0 185 55 334 194 395 369 31 86
38 240 16 327 -51 203 -210 368 -407 424 -69 19 -179 27 -245 17z m-31 -62
c-34 -22 -43 -55 -22 -76 9 -9 1 -17 -32 -33 -35 -17 -49 -32 -66 -70 -29 -66
-17 -75 66 -54 55 14 64 14 79 1 9 -8 36 -24 58 -35 23 -12 44 -28 47 -37 4
-8 17 -15 29 -16 13 0 17 -3 10 -6 -7 -3 -26 0 -44 6 -19 7 -35 8 -42 2 -15
-13 -33 -1 -37 24 -5 25 -40 31 -89 16 -37 -11 -110 -80 -135 -128 -22 -42
-19 -121 6 -163 32 -53 46 -61 104 -54 l52 6 18 -48 c10 -28 17 -71 16 -99 -1
-27 6 -83 16 -122 l17 -73 41 0 c23 0 48 6 57 13 21 17 58 73 58 88 0 7 10 23
22 36 17 18 21 33 19 74 -2 43 3 56 32 97 42 58 50 81 37 98 -9 9 -6 15 9 24
44 23 45 59 4 131 -6 11 62 -4 83 -18 16 -10 24 -28 28 -66 4 -29 11 -58 15
-66 14 -22 50 -3 71 40 11 21 22 39 24 39 3 0 12 -22 21 -50 17 -52 30 -59 67
-39 20 11 20 9 13 -37 -39 -265 -265 -457 -535 -457 -165 0 -322 73 -420 194
l-33 41 17 53 c24 76 22 82 -34 106 -28 12 -55 30 -60 40 -15 28 -12 178 5
244 45 171 178 315 347 375 75 26 103 26 61 -1z m180 -4 c24 -10 51 -13 80 -9
38 6 54 1 108 -27 121 -65 218 -182 255 -307 13 -44 13 -61 3 -108 l-13 -56
-20 58 c-12 32 -26 59 -33 61 -6 2 -24 -19 -40 -46 -31 -56 -43 -63 -43 -27 0
69 -41 100 -147 112 -75 8 -76 4 -33 -72 l31 -52 -23 -16 c-12 -9 -31 -16 -41
-16 -29 0 -33 -31 -7 -52 17 -14 21 -23 14 -33 -5 -8 -22 -32 -38 -55 -24 -33
-29 -50 -27 -89 1 -37 -3 -51 -19 -66 -11 -10 -20 -23 -20 -30 0 -41 -62 -107
-81 -86 -16 16 -31 104 -25 144 5 30 2 55 -8 78 -8 19 -17 46 -20 61 -10 47
-33 61 -93 55 -49 -5 -54 -4 -73 23 -24 33 -27 99 -6 138 21 40 87 100 119
107 22 6 27 4 27 -12 0 -24 71 -60 91 -47 8 4 31 7 52 5 48 -3 67 12 67 55 0
29 -3 34 -24 34 -23 0 -98 43 -157 88 -25 20 -26 20 -69 1 -23 -11 -44 -18
-45 -17 -2 2 1 13 6 25 4 12 28 31 55 42 48 21 51 31 30 81 -4 10 7 24 36 42
49 31 80 34 131 13z m-539 -698 c15 -11 16 -18 9 -32 -10 -17 -12 -15 -27 13
-18 34 -11 40 18 19z"/>
<path d="M71 1418 c-13 -7 -34 -26 -45 -41 -37 -51 -28 -131 42 -375 34 -117
71 -230 82 -252 32 -62 102 -144 257 -301 l145 -146 -1 -136 c-2 -112 1 -137
14 -151 14 -14 51 -16 281 -16 164 0 273 4 285 10 18 10 19 23 19 188 -1 193
-11 299 -37 377 -23 71 -122 167 -232 225 -113 60 -151 88 -280 208 -61 55
-125 109 -143 118 -37 19 -101 22 -122 5 -11 -10 -23 10 -66 114 -51 120 -89
175 -123 175 -7 0 -21 3 -32 5 -11 3 -31 0 -44 -7z m72 -85 c8 -10 44 -88 80
-174 36 -86 72 -169 80 -185 20 -40 298 -351 320 -359 21 -8 47 11 47 34 0 9
-67 91 -148 182 -82 91 -152 174 -156 184 -9 24 2 55 20 55 28 0 57 -22 178
-133 124 -114 172 -148 292 -211 77 -40 153 -106 178 -154 14 -28 26 -89 40
-214 l6 -48 -211 0 -211 0 -122 116 c-161 154 -279 287 -315 354 -35 67 -141
441 -141 498 0 22 3 47 6 56 8 21 37 20 57 -1z m937 -1178 l0 -75 -225 0 -225
0 0 75 0 75 225 0 225 0 0 -75z"/>
<path d="M2196 1420 c-49 -15 -72 -47 -126 -176 -43 -103 -55 -123 -66 -113
-21 17 -85 14 -122 -5 -18 -9 -82 -63 -143 -118 -130 -120 -177 -155 -284
-211 -105 -54 -205 -151 -228 -222 -26 -78 -36 -184 -37 -377 0 -165 1 -178
19 -188 12 -6 121 -10 285 -10 230 0 267 2 281 16 13 14 16 39 14 151 l-1 136
145 146 c155 157 225 239 257 301 25 49 139 447 147 511 13 108 -55 185 -141
159z m58 -86 c12 -33 5 -103 -19 -185 -14 -46 -39 -136 -56 -199 -17 -63 -44
-140 -60 -170 -35 -66 -149 -194 -315 -354 l-122 -116 -211 0 -212 0 5 33 c3
17 8 59 11 92 14 141 69 218 208 290 119 63 167 97 280 201 126 115 163 144
188 144 21 0 33 -29 23 -55 -4 -10 -74 -93 -156 -184 -81 -91 -148 -173 -148
-182 0 -22 26 -43 44 -36 8 3 82 81 165 173 l151 168 76 181 c42 99 83 188 92
198 19 21 48 22 56 1z m-544 -1179 l0 -75 -225 0 -225 0 0 75 0 75 225 0 225
0 0 -75z"/>
</g>
</svg>
