<?xml version="1.0" standalone="no"?>
<!DOCTYPE svg PUBLIC "-//W3C//DTD SVG 20010904//EN"
 "http://www.w3.org/TR/2001/REC-SVG-20010904/DTD/svg10.dtd">
<svg version="1.0" xmlns="http://www.w3.org/2000/svg"
 width="225.000000pt" height="225.000000pt" viewBox="0 0 225.000000 225.000000"
 preserveAspectRatio="xMidYMid meet">

<g transform="translate(0.000000,225.000000) scale(0.100000,-0.100000)"
fill="#000000" stroke="none">
<path d="M910 2201 c-342 -73 -606 -324 -681 -649 -22 -92 -22 -98 -6 -158 10
-34 17 -87 17 -116 0 -54 -2 -58 -120 -223 -66 -93 -120 -173 -120 -180 0 -23
26 -44 68 -54 23 -6 60 -16 83 -22 l41 -10 -7 -73 c-7 -71 -6 -74 19 -94 15
-11 32 -22 38 -24 8 -3 4 -17 -11 -41 -25 -41 -19 -64 22 -86 23 -12 25 -20
29 -97 6 -118 6 -118 175 -124 l137 -5 35 -107 34 -108 525 0 524 0 -5 27 c-3
16 -26 82 -51 148 -25 66 -45 131 -46 145 0 17 41 86 115 195 64 94 137 212
163 262 41 80 50 93 72 93 20 -1 32 -14 66 -72 39 -69 40 -73 26 -102 -13 -26
-13 -35 -1 -70 29 -83 134 -96 180 -22 42 66 -3 148 -82 152 -42 2 -43 3 -89
80 -38 65 -52 80 -74 82 -21 3 -26 7 -21 20 21 55 46 167 52 230 6 78 18 89
44 43 53 -92 204 -32 185 74 -15 76 -114 109 -170 56 -14 -14 -26 -30 -26 -38
0 -7 -7 -13 -15 -13 -11 0 -15 11 -15 39 0 50 -24 172 -44 230 -20 54 -21 51
9 51 20 0 33 15 73 82 46 78 50 82 84 83 101 4 143 116 67 179 -40 34 -88 34
-127 1 -38 -31 -48 -72 -29 -116 13 -33 12 -37 -28 -104 -56 -95 -78 -98 -120
-18 -16 32 -55 90 -86 128 -213 268 -572 397 -909 326z m330 -42 c233 -37 460
-185 590 -384 l52 -80 -182 -3 -182 -2 -44 40 c-24 22 -47 40 -52 40 -4 0 -30
-14 -56 -31 -36 -22 -55 -29 -76 -24 -24 5 -29 13 -39 64 -6 31 -17 63 -23 69
-8 8 -49 12 -113 12 -118 0 -129 -6 -140 -83 -9 -62 -40 -81 -86 -54 -16 9
-42 25 -59 35 l-29 17 -81 -80 c-44 -44 -80 -84 -80 -90 0 -6 14 -33 31 -60
43 -68 34 -95 -39 -111 -80 -18 -82 -21 -82 -138 0 -65 4 -106 12 -114 6 -6
38 -17 69 -23 52 -10 59 -14 64 -40 5 -22 -1 -39 -24 -73 -17 -25 -31 -51 -31
-58 0 -24 143 -158 168 -158 13 0 43 13 66 29 58 41 85 28 102 -48 6 -30 20
-61 30 -68 21 -16 186 -18 214 -3 10 5 21 23 24 40 3 16 8 43 11 59 4 17 16
33 30 39 21 10 31 7 69 -18 58 -39 84 -38 126 5 l34 35 183 0 183 0 -35 -70
c-19 -38 -91 -153 -160 -255 -97 -144 -125 -193 -125 -219 0 -32 26 -118 69
-224 l21 -52 -476 2 -475 3 -30 90 c-16 50 -39 98 -50 108 -18 14 -42 17 -149
17 -148 0 -140 -6 -140 105 0 71 -1 75 -30 95 -30 21 -30 23 -15 46 26 40 19
70 -21 94 l-35 22 7 78 c8 91 11 87 -104 115 -50 12 -72 21 -68 30 2 7 46 70
97 141 50 70 100 141 110 158 24 39 25 117 3 211 -16 68 -16 73 5 155 105 414
523 680 961 609z m940 -219 c23 -23 25 -39 7 -64 -27 -36 -97 -14 -97 31 0 18
37 53 55 53 8 0 24 -9 35 -20z m-974 -186 c15 -67 16 -68 68 -88 l45 -17 45
30 c25 17 48 31 53 31 5 0 33 -24 62 -54 l54 -55 -32 -49 c-36 -56 -37 -65
-12 -112 16 -30 27 -37 77 -50 l59 -15 0 -80 0 -80 -61 -13 c-59 -13 -62 -15
-78 -55 -21 -55 -21 -52 16 -109 l31 -50 -55 -55 -56 -56 -51 32 c-60 36 -54
35 -108 15 -40 -16 -43 -19 -56 -78 l-13 -61 -80 -3 -80 -3 -15 63 c-14 61
-15 63 -61 82 l-46 19 -52 -33 -51 -33 -55 54 c-30 29 -54 57 -54 60 0 4 14
30 30 57 l31 48 -20 46 c-21 49 -27 53 -95 63 l-46 7 0 82 0 82 61 15 c59 13
62 16 81 61 l20 47 -31 45 c-17 24 -31 48 -31 53 0 5 24 33 54 62 l54 54 52
-32 53 -32 46 20 c44 19 46 21 59 81 l14 61 81 -3 82 -3 11 -51z m710 -149
c24 -58 45 -146 51 -217 l6 -68 -147 0 -146 0 0 35 c0 47 -27 71 -88 80 -39 5
-52 12 -60 31 -10 20 -7 31 20 73 20 34 29 58 26 76 l-5 25 164 0 164 0 15
-35z m264 -275 c23 -23 25 -39 7 -64 -27 -36 -97 -14 -97 31 0 18 37 53 55 53
8 0 24 -9 35 -20z m-213 -127 c-6 -72 -27 -160 -51 -218 l-15 -35 -164 0 -164
0 5 29 c3 21 -5 42 -27 75 -27 39 -30 48 -20 69 9 20 23 27 70 36 64 13 79 28
79 80 l0 31 146 0 147 0 -6 -67z m213 -483 c23 -23 25 -39 7 -64 -27 -36 -97
-14 -97 31 0 18 37 53 55 53 8 0 24 -9 35 -20z"/>
<path d="M1053 1530 c-61 -14 -124 -65 -154 -122 -81 -158 33 -350 210 -350
140 0 240 99 241 238 0 160 -141 271 -297 234z m110 -51 c50 -14 113 -71 128
-116 6 -19 9 -60 7 -89 -11 -134 -165 -209 -284 -139 -45 26 -94 106 -94 153
0 81 64 171 136 190 52 13 63 14 107 1z"/>
</g>
</svg>
