<?xml version="1.0" standalone="no"?>
<!DOCTYPE svg PUBLIC "-//W3C//DTD SVG 20010904//EN"
 "http://www.w3.org/TR/2001/REC-SVG-20010904/DTD/svg10.dtd">
<svg version="1.0" xmlns="http://www.w3.org/2000/svg"
 width="225.000000pt" height="225.000000pt" viewBox="0 0 225.000000 225.000000"
 preserveAspectRatio="xMidYMid meet">

<g transform="translate(0.000000,225.000000) scale(0.100000,-0.100000)"
fill="#000000" stroke="none">
<path d="M950 1910 c0 -5 5 -10 10 -10 6 0 10 5 10 10 0 6 -4 10 -10 10 -5 0
-10 -4 -10 -10z"/>
<path d="M860 1870 c0 -5 5 -10 10 -10 6 0 10 5 10 10 0 6 -4 10 -10 10 -5 0
-10 -4 -10 -10z"/>
<path d="M967 1859 c-138 -47 -237 -147 -279 -282 -20 -64 -24 -152 -8 -162
19 -12 10 -51 -37 -147 -38 -81 -44 -100 -33 -113 7 -8 24 -15 37 -15 24 0 25
-2 18 -49 -4 -31 -3 -51 4 -56 8 -4 8 -12 0 -27 -9 -16 -7 -24 10 -42 12 -12
25 -44 30 -71 13 -69 36 -85 123 -85 61 0 71 2 75 20 6 24 4 24 46 4 30 -14
37 -26 52 -78 18 -61 35 -93 35 -66 0 8 -9 42 -19 75 -16 55 -22 62 -64 84
-50 25 -66 61 -27 61 11 0 20 5 20 10 0 6 -9 10 -20 10 -11 0 -20 7 -20 15 0
8 9 15 20 15 11 0 20 4 20 9 0 5 -9 11 -20 14 -26 7 -25 26 2 36 l22 8 -23 6
c-20 5 -22 10 -16 39 12 54 24 71 41 57 19 -16 30 -4 14 16 -17 21 3 46 22 27
19 -19 33 -14 15 6 -13 14 -14 21 -5 30 9 9 16 8 30 -5 16 -15 18 -15 18 0 0
9 -5 19 -10 22 -8 5 -7 11 1 21 6 8 9 17 6 20 -8 9 -94 -73 -119 -115 -20 -32
-24 -53 -28 -176 l-5 -140 -64 -3 c-77 -4 -96 10 -105 73 -4 24 -16 55 -27 69
l-19 25 22 15 c17 12 19 16 6 16 -23 0 -29 24 -22 99 5 58 4 64 -9 49 -15 -19
-42 -24 -51 -9 -4 5 14 51 39 102 25 51 45 99 45 106 0 16 5 16 31 2 11 -5 17
-14 14 -20 -8 -11 15 -12 34 0 11 7 -2 17 -48 41 l-63 31 7 52 c23 175 127
305 291 362 37 14 98 20 249 25 l200 7 -200 1 c-176 1 -207 -1 -258 -19z"/>
<path d="M1473 1873 c15 -2 39 -2 55 0 15 2 2 4 -28 4 -30 0 -43 -2 -27 -4z"/>
<path d="M1334 1805 c-5 -11 -23 -15 -72 -15 -54 0 -70 -4 -89 -22 -32 -30
-89 -34 -103 -7 -15 28 -76 27 -83 -2 -5 -17 -11 -20 -34 -15 -23 5 -34 1 -52
-18 -18 -19 -21 -29 -13 -39 13 -15 5 -31 -20 -40 -27 -10 -22 -56 8 -84 22
-20 24 -26 13 -40 -11 -13 -9 -19 15 -40 21 -18 31 -21 41 -13 10 9 19 6 34
-9 27 -27 71 -27 94 0 15 17 21 18 33 8 12 -10 19 -8 40 12 19 18 23 29 18 52
-5 23 -2 29 15 34 29 8 30 72 1 80 -16 4 -19 13 -17 43 4 61 29 80 104 80 34
0 63 -4 63 -9 0 -13 34 -23 53 -15 39 15 24 74 -19 74 -13 0 -27 -7 -30 -15z
m54 -22 c5 -17 -26 -29 -40 -15 -6 6 -7 15 -3 22 9 14 37 9 43 -7z m-338 -37
c0 -15 41 -29 63 -21 16 7 42 -20 33 -34 -10 -16 5 -61 20 -61 8 0 14 -10 14
-25 0 -14 -6 -25 -13 -25 -18 0 -40 -47 -26 -56 14 -9 -11 -36 -28 -30 -18 7
-63 -14 -63 -31 0 -7 -11 -13 -25 -13 -15 0 -25 6 -25 14 0 20 -17 29 -51 28
-30 -1 -57 22 -39 33 12 7 -5 45 -26 58 -18 10 -18 47 -1 47 16 0 40 47 31 61
-7 12 15 41 27 34 14 -10 59 7 59 21 0 8 10 14 25 14 15 0 25 -6 25 -14z"/>
<path d="M1020 1670 c0 -5 6 -10 14 -10 16 0 46 -37 46 -57 0 -20 -30 -43 -56
-43 -17 0 -30 10 -44 33 -20 32 -20 32 -20 6 0 -72 117 -80 131 -9 6 30 -11
67 -36 78 -32 15 -35 15 -35 2z"/>
<path d="M740 1780 c0 -5 5 -10 11 -10 5 0 7 5 4 10 -3 6 -8 10 -11 10 -2 0
-4 -4 -4 -10z"/>
<path d="M680 1700 c0 -5 5 -10 11 -10 5 0 7 5 4 10 -3 6 -8 10 -11 10 -2 0
-4 -4 -4 -10z"/>
<path d="M1390 1685 c-19 -23 -4 -65 24 -65 13 0 29 7 36 15 17 21 103 20 120
-1 8 -8 25 -14 39 -12 20 2 27 9 29 29 2 14 -4 31 -12 38 -16 13 -56 6 -56
-10 0 -16 -106 -11 -120 6 -16 19 -44 19 -60 0z m47 -21 c6 -16 -15 -37 -29
-28 -4 3 -8 14 -8 25 0 23 28 26 37 3z m186 2 c8 -19 -15 -37 -32 -26 -17 10
-7 40 13 40 7 0 16 -6 19 -14z"/>
<path d="M1252 1562 c-15 -11 -22 -26 -20 -42 2 -18 -4 -28 -24 -38 -37 -18
-40 -68 -4 -81 27 -11 37 -31 30 -59 -7 -24 50 -52 69 -33 15 15 37 14 56 -3
14 -13 20 -12 49 5 25 16 30 25 23 38 -11 20 9 51 33 51 9 0 16 7 16 15 0 20
44 20 60 0 28 -34 87 6 64 43 -15 23 -48 27 -64 7 -16 -20 -60 -20 -60 0 0 8
-9 15 -20 15 -22 0 -46 35 -30 45 19 11 10 25 -26 42 -34 17 -36 17 -45 0 -12
-21 -45 -22 -53 -2 -7 20 -26 19 -54 -3z m42 -11 c10 -16 66 -19 75 -3 7 11
12 12 30 2 17 -9 20 -14 11 -25 -14 -16 14 -65 36 -65 8 0 14 -10 14 -25 0
-18 -5 -25 -19 -25 -19 0 -34 -30 -31 -63 2 -21 -27 -34 -43 -18 -14 14 -60
14 -73 1 -16 -16 -46 -1 -39 21 8 23 -15 59 -37 59 -13 0 -18 8 -18 25 0 18 5
25 18 25 20 0 46 45 36 61 -6 11 13 39 27 39 4 0 10 -4 13 -9z m296 -111 c0
-13 -7 -20 -20 -20 -19 0 -27 20 -13 33 13 14 33 6 33 -13z"/>
<path d="M1326 1493 c-3 -3 4 -11 16 -17 27 -14 35 -41 17 -62 -18 -21 -51
-13 -66 16 -12 24 -13 24 -13 3 0 -27 25 -53 51 -53 39 0 72 55 51 86 -10 16
-48 34 -56 27z"/>
<path d="M625 1560 c-3 -5 -1 -10 4 -10 6 0 11 5 11 10 0 6 -2 10 -4 10 -3 0
-8 -4 -11 -10z"/>
<path d="M1137 1283 c-4 -4 30 -44 75 -90 l83 -83 107 0 c87 0 109 -3 116 -16
11 -20 51 -15 66 8 23 37 -36 77 -64 43 -10 -12 -34 -15 -114 -15 l-101 0 -80
80 c-45 44 -84 77 -88 73z m430 -159 c8 -21 -13 -42 -28 -27 -13 13 -5 43 11
43 6 0 13 -7 17 -16z"/>
<path d="M1150 1180 c0 -5 5 -10 11 -10 5 0 7 5 4 10 -3 6 -8 10 -11 10 -2 0
-4 -4 -4 -10z"/>
<path d="M1220 1110 c0 -5 5 -10 11 -10 5 0 7 5 4 10 -3 6 -8 10 -11 10 -2 0
-4 -4 -4 -10z"/>
<path d="M845 1100 c3 -5 8 -10 11 -10 2 0 4 5 4 10 0 6 -5 10 -11 10 -5 0 -7
-4 -4 -10z"/>
<path d="M1200 1052 c0 -4 22 -29 48 -55 l48 -47 81 0 c63 0 82 -3 87 -15 8
-21 53 -19 65 3 7 14 6 25 -5 40 -18 26 -37 28 -54 7 -9 -11 -33 -15 -89 -15
l-77 0 -44 45 c-42 43 -60 54 -60 37z m315 -82 c4 -6 1 -18 -6 -26 -11 -13
-14 -13 -27 0 -8 8 -11 19 -8 25 9 14 33 14 41 1z"/>
<path d="M1080 970 c0 -9 33 -48 73 -88 l72 -72 82 0 c64 0 82 -3 87 -16 4
-10 15 -14 33 -12 23 2 29 8 31 35 3 28 0 33 -24 39 -19 5 -31 2 -39 -10 -9
-12 -29 -16 -86 -16 l-74 0 -77 77 c-43 43 -78 71 -78 63z m368 -147 c5 -17
-26 -29 -40 -15 -6 6 -7 15 -3 22 9 14 37 9 43 -7z"/>
<path d="M1215 960 c-3 -5 -1 -10 4 -10 6 0 11 5 11 10 0 6 -2 10 -4 10 -3 0
-8 -4 -11 -10z"/>
<path d="M840 949 c0 -5 5 -7 10 -4 6 3 10 8 10 11 0 2 -4 4 -10 4 -5 0 -10
-5 -10 -11z"/>
<path d="M1045 920 c-3 -5 -1 -10 4 -10 6 0 11 5 11 10 0 6 -2 10 -4 10 -3 0
-8 -4 -11 -10z"/>
<path d="M1250 919 c0 -5 5 -7 10 -4 6 3 10 8 10 11 0 2 -4 4 -10 4 -5 0 -10
-5 -10 -11z"/>
<path d="M1080 879 c0 -5 5 -7 10 -4 6 3 10 8 10 11 0 2 -4 4 -10 4 -5 0 -10
-5 -10 -11z"/>
<path d="M1150 810 c0 -5 5 -10 10 -10 6 0 10 5 10 10 0 6 -4 10 -10 10 -5 0
-10 -4 -10 -10z"/>
<path d="M460 385 c0 -32 2 -56 4 -54 8 8 10 98 3 105 -4 4 -7 -19 -7 -51z"/>
<path d="M548 428 c-2 -7 -1 -33 3 -58 l6 -45 1 58 c2 55 -2 71 -10 45z"/>
<path d="M718 433 c6 -2 18 -2 25 0 6 3 1 5 -13 5 -14 0 -19 -2 -12 -5z"/>
<path d="M1020 385 c0 -54 1 -55 28 -54 23 2 24 2 5 6 -27 5 -31 39 -5 46 16
4 16 5 0 6 -27 2 -23 39 5 44 19 4 18 4 -5 6 -27 1 -28 0 -28 -54z"/>
<path d="M1218 433 c6 -2 18 -2 25 0 6 3 1 5 -13 5 -14 0 -19 -2 -12 -5z"/>
<path d="M1395 433 c11 -3 26 -12 33 -21 6 -9 12 -11 12 -6 0 17 -23 34 -44
33 -21 -1 -21 -1 -1 -6z"/>
<path d="M1753 433 c9 -2 23 -2 30 0 6 3 -1 5 -18 5 -16 0 -22 -2 -12 -5z"/>
<path d="M685 419 c-4 -6 -5 -12 -2 -15 2 -3 7 2 10 11 7 17 1 20 -8 4z"/>
<path d="M911 378 c1 -55 5 -50 11 15 2 20 0 37 -4 37 -4 0 -7 -24 -7 -52z"/>
<path d="M1461 378 c1 -55 5 -50 11 15 2 20 0 37 -4 37 -4 0 -7 -24 -7 -52z"/>
<path d="M1573 380 c0 -30 2 -43 4 -27 2 15 2 39 0 55 -2 15 -4 2 -4 -28z"/>
<path d="M930 406 c0 -2 8 -10 18 -17 15 -13 16 -12 3 4 -13 16 -21 21 -21 13z"/>
<path d="M1480 406 c0 -2 8 -10 18 -17 15 -13 16 -12 3 4 -13 16 -21 21 -21
13z"/>
<path d="M1630 396 c0 -2 8 -10 18 -17 15 -13 16 -12 3 4 -13 16 -21 21 -21
13z"/>
<path d="M798 383 c12 -2 30 -2 40 0 9 3 -1 5 -23 4 -22 0 -30 -2 -17 -4z"/>
<path d="M1218 383 c6 -2 18 -2 25 0 6 3 1 5 -13 5 -14 0 -19 -2 -12 -5z"/>
<path d="M1286 365 c-9 -26 -7 -32 5 -12 6 10 9 21 6 23 -2 3 -7 -2 -11 -11z"/>
<path d="M1781 363 c-1 -12 -7 -24 -13 -26 -10 -4 -10 -6 0 -6 15 -1 26 23 19
41 -3 7 -6 3 -6 -9z"/>
<path d="M680 361 c0 -10 29 -36 34 -30 1 2 -6 12 -16 22 -10 9 -18 13 -18 8z"/>
<path d="M960 366 c0 -2 8 -10 18 -17 15 -13 16 -12 3 4 -13 16 -21 21 -21 13z"/>
<path d="M1510 366 c0 -2 8 -10 18 -17 15 -13 16 -12 3 4 -13 16 -21 21 -21
13z"/>
<path d="M1710 361 c0 -10 29 -36 34 -30 1 2 -6 12 -16 22 -10 9 -18 13 -18 8z"/>
<path d="M1153 333 c9 -2 23 -2 30 0 6 3 -1 5 -18 5 -16 0 -22 -2 -12 -5z"/>
<path d="M1223 333 c9 -2 23 -2 30 0 6 3 -1 5 -18 5 -16 0 -22 -2 -12 -5z"/>
</g>
</svg>
