<?xml version="1.0" standalone="no"?>
<!DOCTYPE svg PUBLIC "-//W3C//DTD SVG 20010904//EN"
 "http://www.w3.org/TR/2001/REC-SVG-20010904/DTD/svg10.dtd">
<svg version="1.0" xmlns="http://www.w3.org/2000/svg"
 width="225.000000pt" height="225.000000pt" viewBox="0 0 225.000000 225.000000"
 preserveAspectRatio="xMidYMid meet">

<g transform="translate(0.000000,225.000000) scale(0.100000,-0.100000)"
fill="#000000" stroke="none">
<path d="M1583 1810 c-14 -16 -30 -20 -88 -20 l-70 0 -90 -90 c-49 -49 -83
-90 -75 -90 9 0 51 36 95 80 l80 80 66 0 c47 0 70 -4 79 -15 26 -32 80 -12 80
30 0 45 -47 60 -77 25z m55 -28 c3 -16 -2 -22 -17 -22 -24 0 -35 15 -27 36 9
23 40 13 44 -14z"/>
<path d="M1113 1790 c-12 -5 -32 -23 -44 -39 -18 -24 -30 -31 -56 -31 -63 0
-123 -51 -123 -106 0 -9 -16 -34 -35 -55 -26 -29 -35 -48 -35 -73 0 -29 -8
-41 -56 -82 -105 -90 -154 -191 -154 -319 0 -72 0 -72 -60 -156 -33 -46 -60
-86 -60 -89 1 -20 27 -36 72 -45 l53 -10 5 -87 c6 -111 16 -121 111 -113 l67
6 4 -67 c6 -103 8 -104 240 -104 252 0 238 -13 238 213 0 131 3 167 14 177 8
6 29 34 47 61 l32 50 26 -25 c24 -23 36 -26 96 -26 57 0 73 -4 92 -22 19 -18
27 -20 48 -10 25 11 31 34 19 66 -8 20 -57 21 -74 1 -9 -11 -32 -15 -79 -15
l-66 0 -80 80 c-44 44 -86 80 -94 80 -9 0 7 -22 36 -52 52 -53 52 -53 36 -83
-9 -16 -31 -49 -49 -72 l-34 -41 0 -164 c0 -114 -4 -168 -12 -176 -8 -8 -66
-12 -194 -12 -220 0 -214 -3 -214 107 0 61 -3 74 -14 70 -8 -3 -42 -9 -75 -13
-85 -9 -91 -3 -91 107 l0 88 -37 7 c-21 3 -51 9 -66 13 l-28 6 58 80 58 80 6
101 c6 116 33 185 94 244 35 33 35 34 35 9 1 -13 7 -40 14 -60 10 -28 10 -49
3 -87 -15 -70 4 -132 55 -177 21 -20 52 -38 68 -41 19 -4 38 -20 55 -46 67
-101 207 -115 289 -29 36 37 16 52 -21 16 -75 -70 -208 -49 -250 39 -13 27
-25 37 -58 45 -28 7 -53 23 -74 46 -36 41 -43 65 -39 126 2 33 7 43 18 40 8
-2 35 -9 60 -16 54 -14 76 -47 60 -90 -12 -31 -4 -48 10 -25 14 21 12 84 -2
98 -6 6 -10 13 -7 14 2 2 22 12 43 23 48 24 81 67 72 91 -6 15 -9 14 -25 -12
-32 -52 -68 -74 -123 -74 -43 0 -54 4 -84 34 -28 28 -34 41 -34 77 0 26 8 57
20 77 11 18 20 46 20 62 0 16 11 41 24 57 24 27 25 27 39 9 8 -11 39 -31 68
-45 53 -26 54 -27 53 -68 0 -24 3 -43 7 -43 15 0 22 53 12 81 -8 22 -8 29 3
33 31 12 11 23 -31 19 -39 -5 -47 -2 -75 25 -20 20 -30 40 -30 60 0 61 70 109
133 91 21 -6 27 -4 27 7 0 9 13 29 29 45 23 22 39 29 69 29 42 0 92 -30 92
-56 0 -8 5 -14 10 -14 21 0 9 39 -21 64 -32 27 -91 34 -136 16z m525 -914 c-4
-25 -36 -34 -44 -12 -8 21 13 46 32 39 8 -3 14 -15 12 -27z"/>
<path d="M1565 1660 c-15 -16 -31 -20 -85 -20 -64 0 -67 -1 -104 -39 -21 -21
-34 -41 -28 -44 5 -4 24 9 42 28 32 33 38 35 96 35 43 0 65 -5 74 -16 8 -9 25
-14 44 -12 26 3 32 8 34 33 3 19 -2 33 -14 42 -25 18 -38 16 -59 -7z m53 -24
c2 -10 -1 -23 -7 -29 -15 -15 -46 16 -37 38 8 21 40 15 44 -9z"/>
<path d="M1055 1590 c-4 -6 6 -10 22 -10 35 0 53 -16 53 -47 0 -13 5 -23 10
-23 6 0 10 4 10 9 0 5 12 24 26 41 31 36 27 49 -6 22 -23 -18 -24 -18 -42 0
-19 19 -63 24 -73 8z"/>
<path d="M1440 1570 c-6 -11 -8 -25 -4 -31 3 -6 -4 -21 -16 -34 -12 -12 -17
-26 -12 -29 5 -3 17 3 26 13 10 11 25 16 40 14 33 -7 63 36 46 66 -15 28 -65
28 -80 1z m64 -9 c10 -16 -5 -41 -24 -41 -19 0 -34 25 -24 41 3 5 14 9 24 9
10 0 21 -4 24 -9z"/>
<path d="M1675 1490 c-15 -17 -31 -20 -92 -20 -65 0 -79 -3 -111 -27 -20 -15
-39 -28 -41 -30 -2 -2 -2 -6 2 -9 3 -4 28 8 55 25 41 26 59 31 109 31 47 0 64
-4 78 -20 10 -11 26 -20 36 -20 21 0 49 26 49 45 0 19 -28 45 -49 45 -10 0
-26 -9 -36 -20z m60 -25 c0 -22 -31 -33 -47 -17 -17 17 -1 44 24 40 15 -2 23
-10 23 -23z"/>
<path d="M1172 1445 c0 -16 2 -22 5 -12 2 9 2 23 0 30 -3 6 -5 -1 -5 -18z"/>
<path d="M1210 1451 c0 -19 -25 -36 -47 -32 -7 1 -13 -3 -13 -9 0 -5 -11 -10
-25 -10 -14 0 -25 -5 -25 -11 0 -7 10 -9 24 -7 16 3 23 1 19 -8 -2 -6 0 -15 6
-18 15 -10 -10 -46 -31 -46 -10 0 -18 -5 -18 -11 0 -7 10 -9 25 -7 13 3 22 1
19 -4 -3 -5 -1 -15 5 -22 8 -10 4 -12 -17 -11 -19 2 -20 1 -4 -2 12 -2 22 -8
22 -13 0 -4 9 -6 20 -3 12 3 20 0 20 -7 0 -10 3 -10 15 0 12 10 18 10 30 0 10
-9 15 -9 15 -1 0 6 5 11 11 11 14 0 39 -25 39 -39 0 -6 5 -11 10 -11 14 0 12
37 -2 44 -7 3 -2 3 11 0 19 -5 23 -3 18 10 -3 8 -2 18 4 22 6 4 6 11 -2 20 -9
11 -9 17 0 28 9 10 9 16 1 21 -8 5 -8 10 0 20 8 10 8 15 0 20 -6 4 -8 16 -4
27 5 17 3 20 -12 14 -10 -4 -21 -1 -25 6 -6 9 -11 9 -22 -1 -11 -8 -17 -9 -22
-1 -5 8 -11 8 -21 -1 -8 -6 -17 -9 -21 -5 -3 3 -1 6 5 6 7 0 12 11 12 25 0 14
-4 25 -10 25 -5 0 -10 -9 -10 -19z m52 -121 c9 -19 17 -37 18 -40 0 -3 -24 -5
-54 -6 -53 0 -54 1 -45 24 28 73 53 80 81 22z m48 -5 c0 -25 -4 -45 -10 -45
-5 0 -10 20 -10 45 0 25 5 45 10 45 6 0 10 -20 10 -45z"/>
<path d="M1220 1330 c0 -5 5 -10 11 -10 5 0 7 5 4 10 -3 6 -8 10 -11 10 -2 0
-4 -4 -4 -10z"/>
<path d="M1262 1445 c0 -16 2 -22 5 -12 2 9 2 23 0 30 -3 6 -5 -1 -5 -18z"/>
<path d="M1300 1451 c0 -11 5 -23 10 -26 6 -4 10 5 10 19 0 14 -4 26 -10 26
-5 0 -10 -9 -10 -19z"/>
<path d="M906 1414 c-12 -31 -6 -74 14 -94 12 -12 25 -18 30 -15 5 3 -3 17
-17 31 -24 24 -25 35 -8 77 4 9 3 17 -3 17 -5 0 -13 -7 -16 -16z"/>
<path d="M1340 1390 c0 -5 11 -10 25 -10 14 0 25 5 25 10 0 6 -11 10 -25 10
-14 0 -25 -4 -25 -10z"/>
<path d="M1113 1343 c9 -2 23 -2 30 0 6 3 -1 5 -18 5 -16 0 -22 -2 -12 -5z"/>
<path d="M1353 1343 c9 -2 23 -2 30 0 6 3 -1 5 -18 5 -16 0 -22 -2 -12 -5z"/>
<path d="M1340 1300 c0 -5 11 -10 25 -10 14 0 25 5 25 10 0 6 -11 10 -25 10
-14 0 -25 -4 -25 -10z"/>
<path d="M1430 1258 c0 -7 20 -25 44 -40 36 -24 54 -28 113 -28 57 0 73 -4 88
-20 24 -27 51 -25 70 4 32 48 -28 92 -69 51 -10 -11 -36 -15 -86 -15 -63 0
-76 3 -116 30 -27 19 -44 26 -44 18z m305 -63 c0 -25 -40 -33 -49 -10 -9 24 2
37 27 33 14 -2 22 -10 22 -23z"/>
<path d="M1353 1253 c9 -2 23 -2 30 0 6 3 -1 5 -18 5 -16 0 -22 -2 -12 -5z"/>
<path d="M1172 1205 c0 -16 2 -22 5 -12 2 9 2 23 0 30 -3 6 -5 -1 -5 -18z"/>
<path d="M1210 1210 c0 -11 5 -20 10 -20 6 0 10 9 10 20 0 11 -4 20 -10 20 -5
0 -10 -9 -10 -20z"/>
<path d="M1262 1205 c0 -16 2 -22 5 -12 2 9 2 23 0 30 -3 6 -5 -1 -5 -18z"/>
<path d="M1407 1183 c-4 -3 2 -16 13 -28 12 -12 20 -26 19 -31 -7 -39 20 -62
60 -49 28 8 34 34 16 62 -11 16 -24 23 -40 21 -13 -1 -32 5 -42 15 -11 9 -23
14 -26 10z m98 -68 c0 -21 -31 -33 -46 -18 -5 5 -7 17 -3 27 9 24 49 17 49 -9z"/>
<path d="M1095 1085 c-14 -13 -25 -30 -25 -37 0 -7 11 0 25 15 14 15 34 27 45
27 11 0 31 -12 45 -27 14 -15 25 -22 25 -15 0 20 -47 62 -70 62 -11 0 -32 -11
-45 -25z"/>
<path d="M1350 1104 c0 -5 17 -27 38 -47 35 -34 42 -37 96 -37 42 0 65 -5 83
-19 34 -27 67 -15 71 27 2 23 -2 34 -19 42 -18 10 -26 8 -50 -9 -21 -16 -43
-21 -86 -21 -52 0 -60 3 -95 37 -21 20 -38 33 -38 27z m268 -68 c5 -24 -10
-38 -31 -30 -20 7 -23 40 -4 47 19 8 32 2 35 -17z"/>
</g>
</svg>
