<?xml version="1.0" standalone="no"?>
<!DOCTYPE svg PUBLIC "-//W3C//DTD SVG 20010904//EN"
 "http://www.w3.org/TR/2001/REC-SVG-20010904/DTD/svg10.dtd">
<svg version="1.0" xmlns="http://www.w3.org/2000/svg"
 width="279.000000pt" height="181.000000pt" viewBox="0 0 279.000000 181.000000"
 preserveAspectRatio="xMidYMid meet">

<g transform="translate(0.000000,181.000000) scale(0.100000,-0.100000)"
fill="#000000" stroke="none">
<path d="M0 1050 l0 -750 395 0 395 0 0 -75 0 -75 -125 0 -125 0 0 -70 0 -70
585 0 585 0 0 70 0 70 -110 0 -110 0 0 75 0 75 160 0 161 0 -40 53 c-40 53
-92 157 -105 209 l-6 28 -790 0 -790 0 0 565 0 565 1050 0 1050 0 0 -211 c0
-188 2 -210 16 -205 9 3 27 6 40 6 l24 0 0 245 0 245 -1130 0 -1130 0 0 -750z
m974 -566 c8 -22 -11 -44 -39 -44 -27 0 -49 24 -41 45 8 21 72 20 80 -1z m254
-8 c6 -28 -15 -36 -106 -36 -86 0 -102 9 -88 45 5 13 22 15 98 13 82 -3 93 -5
96 -22z m138 9 c9 -21 -14 -45 -42 -45 -28 0 -49 31 -32 48 17 17 68 15 74 -3z"/>
<path d="M931 1448 c-4 -13 -30 -134 -57 -270 -26 -136 -51 -245 -54 -243 -4
2 -26 68 -50 145 -57 183 -77 197 -122 85 l-24 -60 -184 -3 c-205 -3 -238 -12
-194 -56 13 -13 46 -16 202 -16 205 0 223 4 237 57 7 24 16 3 64 -142 53 -160
58 -170 81 -170 25 0 26 3 76 253 28 139 54 255 56 257 3 3 15 -32 27 -77 51
-189 51 -188 75 -188 18 0 29 15 62 87 l39 87 29 -73 28 -72 70 3 70 3 28 69
27 70 27 -60 c45 -100 51 -109 73 -112 23 -3 32 19 79 200 10 37 20 65 24 62
3 -3 16 -60 30 -127 l25 -122 30 -3 c24 -2 35 3 53 28 l23 30 -29 0 -29 0 -33
176 c-19 97 -40 183 -46 192 -27 36 -47 1 -89 -156 -22 -84 -43 -152 -46 -152
-3 0 -21 33 -40 73 -48 101 -62 99 -112 -20 -36 -85 -42 -93 -66 -93 -25 0
-30 8 -61 83 -55 136 -72 139 -125 18 l-33 -74 -15 54 c-9 30 -28 99 -42 154
-15 55 -32 106 -37 113 -16 19 -38 14 -47 -10z"/>
<path d="M2104 1121 c-71 -26 -121 -60 -177 -120 -199 -213 -132 -554 132
-684 63 -30 72 -32 181 -32 104 0 121 3 172 27 l57 27 82 -90 c44 -49 88 -89
96 -89 14 0 143 116 143 129 0 3 -38 48 -85 99 -47 51 -85 94 -85 96 0 3 9 25
20 50 93 218 -4 468 -220 570 -57 27 -77 31 -165 33 -78 2 -111 -2 -151 -16z
m217 -75 c110 -25 192 -94 241 -202 18 -39 23 -67 23 -139 0 -83 -2 -95 -34
-153 -112 -205 -368 -254 -536 -100 -80 72 -107 131 -113 238 -3 70 0 95 18
142 38 103 140 192 247 217 55 13 91 12 154 -3z"/>
</g>
</svg>
